<svg width="28" height="21" viewBox="0 0 28 21" fill="none" xmlns="http://www.w3.org/2000/svg">
<path d="M0 0H28V7H0V0Z" fill="#FF9933"/>
<path d="M0 7H28V14H0V7Z" fill="white"/>
<path d="M0 14H28V21H0V14Z" fill="#128807"/>
<path d="M14.0002 13.2997C15.5466 13.2997 16.8002 12.0461 16.8002 10.4997C16.8002 8.95331 15.5466 7.69971 14.0002 7.69971C12.4538 7.69971 11.2002 8.95331 11.2002 10.4997C11.2002 12.0461 12.4538 13.2997 14.0002 13.2997Z" fill="#000088"/>
<path d="M13.9998 12.9498C15.3529 12.9498 16.4498 11.8529 16.4498 10.4998C16.4498 9.14671 15.3529 8.0498 13.9998 8.0498C12.6467 8.0498 11.5498 9.14671 11.5498 10.4998C11.5498 11.8529 12.6467 12.9498 13.9998 12.9498Z" fill="white"/>
<path d="M13.9998 10.9898C14.2704 10.9898 14.4898 10.7704 14.4898 10.4998C14.4898 10.2291 14.2704 10.0098 13.9998 10.0098C13.7291 10.0098 13.5098 10.2291 13.5098 10.4998C13.5098 10.7704 13.7291 10.9898 13.9998 10.9898Z" fill="#000088"/>
<path d="M16.4132 10.941C16.4803 10.9499 16.5418 10.9026 16.5506 10.8356C16.5595 10.7685 16.5123 10.7069 16.4452 10.6981C16.3781 10.6893 16.3166 10.7365 16.3077 10.8036C16.2989 10.8707 16.3461 10.9322 16.4132 10.941Z" fill="#000088"/>
<path d="M14 12.9498L14.084 11.4798L14 10.7798L13.916 11.4798L14 12.9498Z" fill="#000088"/>
<path d="M16.2167 11.5506C16.2792 11.5765 16.3508 11.5468 16.3767 11.4843C16.4026 11.4218 16.3729 11.3501 16.3104 11.3242C16.2479 11.2983 16.1763 11.328 16.1504 11.3905C16.1245 11.453 16.1542 11.5247 16.2167 11.5506Z" fill="#000088"/>
<path d="M13.3657 12.8663L13.8273 11.4682L13.9273 10.7703L13.665 11.4247L13.3657 12.8663Z" fill="#000088"/>
<path d="M15.8689 12.0883C15.9226 12.1295 15.9995 12.1193 16.0407 12.0657C16.0819 12.012 16.0718 11.9351 16.0181 11.8939C15.9644 11.8527 15.8875 11.8628 15.8463 11.9165C15.8051 11.9702 15.8153 12.0471 15.8689 12.0883Z" fill="#000088"/>
<path d="M12.7749 12.6215L13.5826 11.3904L13.8599 10.7422L13.4371 11.3064L12.7749 12.6215Z" fill="#000088"/>
<path d="M15.3944 12.5183C15.4355 12.572 15.5124 12.5821 15.5661 12.5409C15.6198 12.4997 15.6299 12.4228 15.5887 12.3692C15.5475 12.3155 15.4706 12.3054 15.417 12.3465C15.3633 12.3877 15.3532 12.4646 15.3944 12.5183Z" fill="#000088"/>
<path d="M12.2677 12.232L13.3665 11.252L13.8021 10.6976L13.2477 11.1332L12.2677 12.232Z" fill="#000088"/>
<path d="M14.8244 12.81C14.8503 12.8725 14.922 12.9021 14.9845 12.8763C15.047 12.8504 15.0767 12.7787 15.0508 12.7162C15.0249 12.6537 14.9532 12.624 14.8907 12.6499C14.8282 12.6758 14.7985 12.7475 14.8244 12.81Z" fill="#000088"/>
<path d="M11.8781 11.7246L13.1931 11.0624L13.7573 10.6396L13.1091 10.9169L11.8781 11.7246Z" fill="#000088"/>
<path d="M14.1984 12.9449C14.2072 13.012 14.2687 13.0592 14.3358 13.0504C14.4029 13.0416 14.4501 12.98 14.4413 12.913C14.4325 12.8459 14.3709 12.7987 14.3038 12.8075C14.2368 12.8163 14.1895 12.8779 14.1984 12.9449Z" fill="#000088"/>
<path d="M11.6337 11.134L13.0753 10.8347L13.7297 10.5723L13.0319 10.6724L11.6337 11.134Z" fill="#000088"/>
<path d="M13.5585 12.9132C13.5497 12.9803 13.5969 13.0418 13.664 13.0506C13.731 13.0595 13.7926 13.0123 13.8014 12.9452C13.8102 12.8781 13.763 12.8166 13.6959 12.8077C13.6289 12.7989 13.5673 12.8461 13.5585 12.9132Z" fill="#000088"/>
<path d="M11.5502 10.5L13.0202 10.584L13.7202 10.5L13.0202 10.416L11.5502 10.5Z" fill="#000088"/>
<path d="M12.9494 12.7167C12.9235 12.7792 12.9532 12.8508 13.0157 12.8767C13.0782 12.9026 13.1499 12.8729 13.1758 12.8104C13.2017 12.7479 13.172 12.6763 13.1095 12.6504C13.047 12.6245 12.9753 12.6542 12.9494 12.7167Z" fill="#000088"/>
<path d="M11.6337 9.86569L13.0318 10.3273L13.7297 10.4273L13.0753 10.165L11.6337 9.86569Z" fill="#000088"/>
<path d="M12.4112 12.3694C12.37 12.4231 12.3802 12.5 12.4338 12.5412C12.4875 12.5824 12.5644 12.5722 12.6056 12.5186C12.6468 12.4649 12.6367 12.388 12.583 12.3468C12.5293 12.3056 12.4524 12.3158 12.4112 12.3694Z" fill="#000088"/>
<path d="M11.878 9.27486L13.1091 10.0826L13.7573 10.3599L13.1931 9.93711L11.878 9.27486Z" fill="#000088"/>
<path d="M11.9817 11.8939C11.928 11.9351 11.9179 12.012 11.9591 12.0656C12.0003 12.1193 12.0772 12.1294 12.1308 12.0882C12.1845 12.0471 12.1946 11.9702 12.1535 11.9165C12.1123 11.8628 12.0354 11.8527 11.9817 11.8939Z" fill="#000088"/>
<path d="M12.2675 8.76716L13.2476 9.86601L13.8019 10.3016L13.3664 9.74721L12.2675 8.76716Z" fill="#000088"/>
<path d="M11.69 11.3244C11.6275 11.3503 11.5979 11.422 11.6237 11.4845C11.6496 11.547 11.7213 11.5767 11.7838 11.5508C11.8463 11.5249 11.876 11.4532 11.8501 11.3907C11.8242 11.3282 11.7525 11.2985 11.69 11.3244Z" fill="#000088"/>
<path d="M12.7754 8.37855L13.4376 9.6936L13.8604 10.2578L13.5831 9.6096L12.7754 8.37855Z" fill="#000088"/>
<path d="M11.5551 10.6984C11.488 10.7072 11.4408 10.7687 11.4496 10.8358C11.4584 10.9029 11.52 10.9501 11.587 10.9413C11.6541 10.9325 11.7013 10.8709 11.6925 10.8038C11.6837 10.7368 11.6221 10.6895 11.5551 10.6984Z" fill="#000088"/>
<path d="M13.366 8.13369L13.6653 9.57534L13.9277 10.2297L13.8276 9.53186L13.366 8.13369Z" fill="#000088"/>
<path d="M11.5868 10.059C11.5197 10.0501 11.4582 10.0974 11.4494 10.1644C11.4405 10.2315 11.4877 10.2931 11.5548 10.3019C11.6219 10.3107 11.6834 10.2635 11.6923 10.1964C11.7011 10.1293 11.6539 10.0678 11.5868 10.059Z" fill="#000088"/>
<path d="M14 8.05021L13.916 9.52021L14 10.2202L14.084 9.52021L14 8.05021Z" fill="#000088"/>
<path d="M11.7833 9.44943C11.7208 9.42354 11.6492 9.45322 11.6233 9.51572C11.5974 9.57823 11.6271 9.64989 11.6896 9.67578C11.7521 9.70167 11.8237 9.67199 11.8496 9.60948C11.8755 9.54698 11.8458 9.47532 11.7833 9.44943Z" fill="#000088"/>
<path d="M14.6343 8.13366L14.1727 9.53184L14.0727 10.2297L14.335 9.57532L14.6343 8.13366Z" fill="#000088"/>
<path d="M12.1311 8.91172C12.0774 8.87053 12.0005 8.88066 11.9593 8.93433C11.9181 8.98801 11.9282 9.06491 11.9819 9.10609C12.0356 9.14728 12.1125 9.13715 12.1537 9.08348C12.1949 9.0298 12.1847 8.9529 12.1311 8.91172Z" fill="#000088"/>
<path d="M15.2251 8.37853L14.4174 9.60959L14.1401 10.2578L14.5629 9.69359L15.2251 8.37853Z" fill="#000088"/>
<path d="M12.6056 8.4817C12.5645 8.42802 12.4876 8.4179 12.4339 8.45908C12.3802 8.50027 12.3701 8.57717 12.4113 8.63084C12.4525 8.68452 12.5294 8.69464 12.583 8.65345C12.6367 8.61227 12.6468 8.53537 12.6056 8.4817Z" fill="#000088"/>
<path d="M15.7323 8.768L14.6335 9.74805L14.1979 10.3024L14.7523 9.86684L15.7323 8.768Z" fill="#000088"/>
<path d="M13.1756 8.18955C13.1497 8.12705 13.078 8.09736 13.0155 8.12326C12.953 8.14915 12.9233 8.2208 12.9492 8.28331C12.9751 8.34581 13.0468 8.3755 13.1093 8.34961C13.1718 8.32372 13.2015 8.25206 13.1756 8.18955Z" fill="#000088"/>
<path d="M16.1215 9.27487L14.8064 9.93712L14.2422 10.3599L14.8904 10.0826L16.1215 9.27487Z" fill="#000088"/>
<path d="M13.8016 8.05458C13.7928 7.9875 13.7313 7.94028 13.6642 7.94911C13.5971 7.95795 13.5499 8.01948 13.5587 8.08656C13.5675 8.15363 13.6291 8.20085 13.6962 8.19202C13.7632 8.18319 13.8105 8.12165 13.8016 8.05458Z" fill="#000088"/>
<path d="M16.3663 9.86553L14.9247 10.1649L14.2703 10.4272L14.9681 10.3271L16.3663 9.86553Z" fill="#000088"/>
<path d="M14.4415 8.08631C14.4503 8.01923 14.4031 7.9577 14.336 7.94887C14.269 7.94004 14.2074 7.98725 14.1986 8.05433C14.1898 8.12141 14.237 8.18294 14.3041 8.19177C14.3711 8.2006 14.4327 8.15338 14.4415 8.08631Z" fill="#000088"/>
<path d="M16.4503 10.4995L14.9803 10.4155L14.2803 10.4995L14.9803 10.5835L16.4503 10.4995Z" fill="#000088"/>
<path d="M15.0506 8.28283C15.0765 8.22032 15.0468 8.14866 14.9843 8.12277C14.9218 8.09688 14.8501 8.12657 14.8242 8.18907C14.7983 8.25158 14.828 8.32323 14.8905 8.34912C14.953 8.37502 15.0247 8.34533 15.0506 8.28283Z" fill="#000088"/>
<path d="M16.3663 11.1338L14.9682 10.6722L14.2703 10.5722L14.9247 10.8345L16.3663 11.1338Z" fill="#000088"/>
<path d="M15.5883 8.63106C15.6295 8.57739 15.6193 8.50049 15.5657 8.4593C15.512 8.41812 15.4351 8.42824 15.3939 8.48192C15.3527 8.53559 15.3628 8.61249 15.4165 8.65367C15.4702 8.69486 15.5471 8.68474 15.5883 8.63106Z" fill="#000088"/>
<path d="M16.1215 11.7251L14.8904 10.9174L14.2422 10.6401L14.8064 11.0629L16.1215 11.7251Z" fill="#000088"/>
<path d="M16.0178 9.10613C16.0715 9.06494 16.0816 8.98804 16.0404 8.93437C15.9992 8.88069 15.9223 8.87057 15.8687 8.91175C15.815 8.95294 15.8049 9.02984 15.8461 9.08351C15.8872 9.13719 15.9641 9.14731 16.0178 9.10613Z" fill="#000088"/>
<path d="M15.7315 12.2328L14.7515 11.134L14.1971 10.6984L14.6327 11.2528L15.7315 12.2328Z" fill="#000088"/>
<path d="M16.3104 9.67557C16.373 9.64968 16.4026 9.57802 16.3767 9.51551C16.3509 9.45301 16.2792 9.42332 16.2167 9.44922C16.1542 9.47511 16.1245 9.54676 16.1504 9.60927C16.1763 9.67177 16.2479 9.70146 16.3104 9.67557Z" fill="#000088"/>
<path d="M15.2251 12.6215L14.5629 11.3064L14.1401 10.7422L14.4174 11.3904L15.2251 12.6215Z" fill="#000088"/>
<path d="M16.4449 10.3016C16.512 10.2928 16.5592 10.2313 16.5504 10.1642C16.5416 10.0971 16.48 10.0499 16.413 10.0587C16.3459 10.0675 16.2987 10.1291 16.3075 10.1962C16.3163 10.2632 16.3779 10.3105 16.4449 10.3016Z" fill="#000088"/>
<path d="M14.634 12.8668L14.3347 11.4251L14.0723 10.7707L14.1724 11.4686L14.634 12.8668Z" fill="#000088"/>
</svg>
