<svg width="28" height="19" viewBox="0 0 28 19" fill="none" xmlns="http://www.w3.org/2000/svg">
<path d="M0 0.000488281H27.9999V18.6673H0V0.000488281Z" fill="#F0F0F0"/>
<path d="M15.75 0H12.25V7.58328H0V11.0833H12.25V18.6666H15.75V11.0833H27.9999V7.58328H15.75V0Z" fill="#D80027"/>
<path d="M21.5351 12.5796L28 16.1712V12.5796H21.5351ZM17.0435 12.5796L28 18.6665V16.9453L20.1418 12.5796H17.0435ZM25.0815 18.6665L17.0435 14.2005V18.6665H25.0815Z" fill="#0052B4"/>
<path d="M17.0435 12.5796L28 18.6665V16.9453L20.1418 12.5796H17.0435Z" fill="#F0F0F0"/>
<path d="M17.0435 12.5796L28 18.6665V16.9453L20.1418 12.5796H17.0435Z" fill="#D80027"/>
<path d="M4.94051 12.5796L0 15.3244V12.5796H4.94051ZM10.9565 13.3536V18.6666H1.39404L10.9565 13.3536Z" fill="#0052B4"/>
<path d="M7.8582 12.5796L0 16.9453V18.6665L10.9565 12.5796H7.8582Z" fill="#D80027"/>
<path d="M6.46487 6.08693L0 2.49528V6.08693H6.46487ZM10.9565 6.08693L0 0V1.72123L7.8582 6.08693H10.9565ZM2.91845 0L10.9565 4.46599V0H2.91845Z" fill="#0052B4"/>
<path d="M10.9565 6.08693L0 0V1.72123L7.8582 6.08693H10.9565Z" fill="#F0F0F0"/>
<path d="M10.9565 6.08693L0 0V1.72123L7.8582 6.08693H10.9565Z" fill="#D80027"/>
<path d="M23.0595 6.08698L28 3.34222V6.08698H23.0595ZM17.0435 5.31294V0H26.6059L17.0435 5.31294Z" fill="#0052B4"/>
<path d="M20.1418 6.08693L28 1.72123V0L17.0435 6.08693H20.1418Z" fill="#D80027"/>
</svg>
